<svg xmlns="http://www.w3.org/2000/svg" xmlns:xlink="http://www.w3.org/1999/xlink" width="360" height="760" viewBox="0 0 360 760">
  <defs>
    <style>
      .cls-1 {
        fill: none;
      }

      .cls-2 {
        clip-path: url(#clip-Info_re_page);
      }

      .cls-3 {
        opacity: 0.56;
        clip-path: url(#clip-path);
      }

      .cls-4 {
        fill: #ffd3f6;
      }

      .cls-5 {
        fill: #eeffcf;
      }

      .cls-6 {
        fill: #fcfffd;
      }

      .cls-7 {
        fill: #ffacac;
      }

      .cls-8 {
        fill: #bbc3ff;
      }

      .cls-9 {
        fill: #ccf7ff;
      }

      .cls-10 {
        fill: #fff1d9;
      }

      .cls-11 {
        font-size: 25px;
      }

      .cls-11, .cls-14 {
        font-family: Binggrae-Bold, Binggrae;
      }

      .cls-11, .cls-14, .cls-15 {
        font-weight: 700;
      }

      .cls-12, .cls-17 {
        fill: #fff;
      }

      .cls-12 {
        stroke: #707070;
      }

      .cls-13 {
        fill: #bef7c9;
      }

      .cls-14 {
        font-size: 22px;
      }

      .cls-15 {
        fill: #298c35;
        font-size: 34px;
        font-family: BinggraeII-Bold, BinggraeⅡ;
      }

      .cls-16 {
        stroke: none;
      }
    </style>
    <clipPath id="clip-path">
      <rect class="cls-1" width="360" height="760"/>
    </clipPath>
    <clipPath id="clip-Info_re_page">
      <rect width="360" height="760"/>
    </clipPath>
  </defs>
  <g id="Info_re_page" class="cls-2">
    <rect class="cls-17" width="360" height="760"/>
    <g id="반복_그리드_1" data-name="반복 그리드 1" class="cls-3">
      <g transform="translate(-4777 -934)">
        <ellipse id="타원_2" data-name="타원 2" class="cls-4" cx="26" cy="28" rx="26" ry="28" transform="translate(4777 1008)"/>
        <circle id="타원_3" data-name="타원 3" class="cls-5" cx="35.5" cy="35.5" r="35.5" transform="translate(4829 1084)"/>
        <circle id="타원_4" data-name="타원 4" class="cls-6" cx="23.5" cy="23.5" r="23.5" transform="matrix(0.998, 0.07, -0.07, 0.998, 4886.563, 1005.61)"/>
        <circle id="타원_5" data-name="타원 5" class="cls-7" cx="17.5" cy="17.5" r="17.5" transform="translate(4830 934)"/>
        <ellipse id="타원_6" data-name="타원 6" class="cls-8" cx="16.5" cy="17.5" rx="16.5" ry="17.5" transform="translate(4952 1120)"/>
        <circle id="타원_7" data-name="타원 7" class="cls-9" cx="23.5" cy="23.5" r="23.5" transform="matrix(0.998, 0.07, -0.07, 0.998, 4807.196, 1194)"/>
      </g>
      <g transform="translate(-4549 -934)">
        <ellipse id="타원_2-2" data-name="타원 2" class="cls-4" cx="26" cy="28" rx="26" ry="28" transform="translate(4777 1008)"/>
        <circle id="타원_3-2" data-name="타원 3" class="cls-5" cx="35.5" cy="35.5" r="35.5" transform="translate(4829 1084)"/>
        <circle id="타원_4-2" data-name="타원 4" class="cls-6" cx="23.5" cy="23.5" r="23.5" transform="matrix(0.998, 0.07, -0.07, 0.998, 4886.563, 1005.61)"/>
        <circle id="타원_5-2" data-name="타원 5" class="cls-7" cx="17.5" cy="17.5" r="17.5" transform="translate(4830 934)"/>
        <ellipse id="타원_6-2" data-name="타원 6" class="cls-8" cx="16.5" cy="17.5" rx="16.5" ry="17.5" transform="translate(4952 1120)"/>
        <circle id="타원_7-2" data-name="타원 7" class="cls-9" cx="23.5" cy="23.5" r="23.5" transform="matrix(0.998, 0.07, -0.07, 0.998, 4807.196, 1194)"/>
      </g>
      <g transform="translate(-4777 -603)">
        <ellipse id="타원_2-3" data-name="타원 2" class="cls-4" cx="26" cy="28" rx="26" ry="28" transform="translate(4777 1008)"/>
        <circle id="타원_3-3" data-name="타원 3" class="cls-5" cx="35.5" cy="35.5" r="35.5" transform="translate(4829 1084)"/>
        <circle id="타원_4-3" data-name="타원 4" class="cls-6" cx="23.5" cy="23.5" r="23.5" transform="matrix(0.998, 0.07, -0.07, 0.998, 4886.563, 1005.61)"/>
        <circle id="타원_5-3" data-name="타원 5" class="cls-7" cx="17.5" cy="17.5" r="17.5" transform="translate(4830 934)"/>
        <ellipse id="타원_6-3" data-name="타원 6" class="cls-8" cx="16.5" cy="17.5" rx="16.5" ry="17.5" transform="translate(4952 1120)"/>
        <circle id="타원_7-3" data-name="타원 7" class="cls-9" cx="23.5" cy="23.5" r="23.5" transform="matrix(0.998, 0.07, -0.07, 0.998, 4807.196, 1194)"/>
      </g>
      <g transform="translate(-4549 -603)">
        <ellipse id="타원_2-4" data-name="타원 2" class="cls-4" cx="26" cy="28" rx="26" ry="28" transform="translate(4777 1008)"/>
        <circle id="타원_3-4" data-name="타원 3" class="cls-5" cx="35.5" cy="35.5" r="35.5" transform="translate(4829 1084)"/>
        <circle id="타원_4-4" data-name="타원 4" class="cls-6" cx="23.5" cy="23.5" r="23.5" transform="matrix(0.998, 0.07, -0.07, 0.998, 4886.563, 1005.61)"/>
        <circle id="타원_5-4" data-name="타원 5" class="cls-7" cx="17.5" cy="17.5" r="17.5" transform="translate(4830 934)"/>
        <ellipse id="타원_6-4" data-name="타원 6" class="cls-8" cx="16.5" cy="17.5" rx="16.5" ry="17.5" transform="translate(4952 1120)"/>
        <circle id="타원_7-4" data-name="타원 7" class="cls-9" cx="23.5" cy="23.5" r="23.5" transform="matrix(0.998, 0.07, -0.07, 0.998, 4807.196, 1194)"/>
      </g>
      <g transform="translate(-4777 -272)">
        <ellipse id="타원_2-5" data-name="타원 2" class="cls-4" cx="26" cy="28" rx="26" ry="28" transform="translate(4777 1008)"/>
        <circle id="타원_3-5" data-name="타원 3" class="cls-5" cx="35.5" cy="35.5" r="35.5" transform="translate(4829 1084)"/>
        <circle id="타원_4-5" data-name="타원 4" class="cls-6" cx="23.5" cy="23.5" r="23.5" transform="matrix(0.998, 0.07, -0.07, 0.998, 4886.563, 1005.61)"/>
        <circle id="타원_5-5" data-name="타원 5" class="cls-7" cx="17.5" cy="17.5" r="17.5" transform="translate(4830 934)"/>
        <ellipse id="타원_6-5" data-name="타원 6" class="cls-8" cx="16.5" cy="17.5" rx="16.5" ry="17.5" transform="translate(4952 1120)"/>
        <circle id="타원_7-5" data-name="타원 7" class="cls-9" cx="23.5" cy="23.5" r="23.5" transform="matrix(0.998, 0.07, -0.07, 0.998, 4807.196, 1194)"/>
      </g>
      <g transform="translate(-4549 -272)">
        <ellipse id="타원_2-6" data-name="타원 2" class="cls-4" cx="26" cy="28" rx="26" ry="28" transform="translate(4777 1008)"/>
        <circle id="타원_3-6" data-name="타원 3" class="cls-5" cx="35.5" cy="35.5" r="35.5" transform="translate(4829 1084)"/>
        <circle id="타원_4-6" data-name="타원 4" class="cls-6" cx="23.5" cy="23.5" r="23.5" transform="matrix(0.998, 0.07, -0.07, 0.998, 4886.563, 1005.61)"/>
        <circle id="타원_5-6" data-name="타원 5" class="cls-7" cx="17.5" cy="17.5" r="17.5" transform="translate(4830 934)"/>
        <ellipse id="타원_6-6" data-name="타원 6" class="cls-8" cx="16.5" cy="17.5" rx="16.5" ry="17.5" transform="translate(4952 1120)"/>
        <circle id="타원_7-6" data-name="타원 7" class="cls-9" cx="23.5" cy="23.5" r="23.5" transform="matrix(0.998, 0.07, -0.07, 0.998, 4807.196, 1194)"/>
      </g>
    </g>
    <rect id="info_back" class="cls-10" width="305" height="415" rx="57" transform="translate(30 96)"/>
    <text id="name_text" class="cls-11" transform="translate(52 145)"><tspan x="0" y="0">이름: </tspan></text>
    <g id="name_textarea" class="cls-12" transform="translate(130 120)">
      <rect class="cls-16" width="178" height="33" rx="16.5"/>
      <rect class="cls-1" x="0.5" y="0.5" width="177" height="32" rx="16"/>
    </g>
    <text id="name_text-2" data-name="name_text" class="cls-11" transform="translate(52 204)"><tspan x="0" y="0">나이: </tspan></text>
    <g id="name_textarea-2" data-name="name_textarea" class="cls-12" transform="translate(130 179)">
      <rect class="cls-16" width="178" height="33" rx="16.5"/>
      <rect class="cls-1" x="0.5" y="0.5" width="177" height="32" rx="16"/>
    </g>
    <text id="name_text-3" data-name="name_text" class="cls-11" transform="translate(52 263)"><tspan x="0" y="0">성별: </tspan></text>
    <g id="name_textarea-3" data-name="name_textarea" class="cls-12" transform="translate(130 238)">
      <rect class="cls-16" width="178" height="33" rx="16.5"/>
      <rect class="cls-1" x="0.5" y="0.5" width="177" height="32" rx="16"/>
    </g>
    <text id="name_text-4" data-name="name_text" class="cls-11" transform="translate(77 322)"><tspan x="0" y="0">키: </tspan></text>
    <g id="name_textarea-4" data-name="name_textarea" class="cls-12" transform="translate(130 297)">
      <rect class="cls-16" width="178" height="33" rx="16.5"/>
      <rect class="cls-1" x="0.5" y="0.5" width="177" height="32" rx="16"/>
    </g>
    <text id="name_text-5" data-name="name_text" class="cls-11" transform="translate(45 381)"><tspan x="0" y="0">천식 :</tspan><tspan x="0" y="33">진단일 </tspan></text>
    <g id="name_textarea-5" data-name="name_textarea" class="cls-12" transform="translate(130 362)">
      <rect class="cls-16" width="178" height="117" rx="21"/>
      <rect class="cls-1" x="0.5" y="0.5" width="177" height="116" rx="20.5"/>
    </g>
    <g id="btn_re_info" transform="translate(-64 268)">
      <rect id="btn_re_info-2" data-name="btn_re_info" class="cls-13" width="146" height="53" rx="26.5" transform="translate(95 334)"/>
      <text id="btn_re_text" class="cls-14" transform="translate(125 368)"><tspan x="0" y="0">수정하기</tspan></text>
    </g>
    <g id="btn_info_back" transform="translate(94 268)">
      <rect id="btn_info_back-2" data-name="btn_info_back" class="cls-13" width="146" height="53" rx="26.5" transform="translate(95 334)"/>
      <text id="btn_info_back_text" class="cls-14" transform="translate(147 368)"><tspan x="0" y="0">취소</tspan></text>
    </g>
    <text id="info_me__text" class="cls-15" transform="translate(89 51)"><tspan x="0" y="0">내 정보 수정</tspan></text>
  </g>
</svg>
